o ButtonHighlight
v 0.063639610306789274 0 0.063639610306789274
v 0.07778174593052023 0 0.077781745930520216
v -0.077781745930520216 0 0.07778174593052023
v -0.063639610306789274 0 0.063639610306789274
v -0.077781745930520244 0 -0.077781745930520216
v -0.063639610306789288 0 -0.063639610306789274
v 0.077781745930520216 0 -0.077781745930520244
v 0.06363961030678926 0 -0.063639610306789288
vn 0 -1 0
vt 1 0
vt 1 1
vt 0.66666666666666663 1
vt 0.66666666666666663 0
vt 0.33333333333333331 1
vt 0.33333333333333331 0
vt 0 1
vt 0 0
g ButtonHighlight
f 1/1/1 2/2/1 3/3/1 4/4/1
f 4/4/1 3/3/1 5/5/1 6/6/1
f 6/6/1 5/5/1 7/7/1 8/8/1
f 8/8/1 7/7/1 2/2/1 1/1/1
